<svg width="480pt" height="290pt" viewBox="0 0 480 290" version="1.1" xmlns="http://www.w3.org/2000/svg" xmlns:xlink="http://www.w3.org/1999/xlink">
  <g id="surface2">
    <path style=" stroke:none;fill-rule:evenodd;fill:rgb(0%,72.156863%,87.058824%);fill-opacity:1;" d="M 234.75 180.398438 C 240.183594 175.332031 244.351562 170.417969 247.25 165.648438 C 250.117188 160.882812 252.035156 156.234375 253 151.699219 C 253.964844 147.132812 254.25 142.667969 253.851562 138.300781 C 253.484375 133.964844 252.75 129.667969 251.648438 125.398438 C 250.550781 121.167969 249.398438 116.964844 248.199219 112.800781 C 247 108.632812 246.035156 104.484375 245.300781 100.351562 C 244.566406 96.183594 244.398438 92.015625 244.800781 87.851562 C 245.167969 83.648438 246.398438 79.417969 248.5 75.148438 C 250.566406 70.882812 253.800781 66.535156 258.199219 62.101562 C 252.101562 67.332031 247.433594 72.332031 244.199219 77.101562 C 240.964844 81.867188 238.816406 86.5 237.75 91 C 236.648438 95.5 236.285156 99.933594 236.648438 104.300781 C 236.984375 108.699219 237.667969 113.132812 238.699219 117.601562 C 239.699219 122.035156 240.699219 126.601562 241.699219 131.300781 C 242.699219 136 243.300781 140.898438 243.5 146 C 243.734375 151.101562 243.214844 156.5 241.949219 162.199219 C 240.648438 167.867188 238.25 173.933594 234.75 180.398438 "/>
    <path style=" stroke:none;fill-rule:evenodd;fill:rgb(0%,18.039216%,43.137255%);fill-opacity:1;" d="M 232.25 116 C 237.851562 114.167969 242.851562 112.101562 247.25 109.800781 C 251.648438 107.5 255.183594 105.148438 257.851562 102.75 C 259.984375 103.75 261.332031 105.101562 261.898438 106.800781 C 262.5 109 261.734375 111.417969 259.601562 114.050781 C 257.464844 116.683594 254.300781 119.285156 250.101562 121.851562 C 245.867188 124.417969 240.882812 126.75 235.148438 128.851562 C 233.984375 124.617188 233.015625 120.332031 232.25 116 M 269.699219 107.199219 C 269.234375 105.699219 268.050781 104.515625 266.148438 103.648438 C 264.25 102.75 261.800781 102.167969 258.800781 101.898438 C 260.300781 100.398438 261.367188 98.964844 262 97.601562 C 262.632812 96.199219 262.785156 94.898438 262.449219 93.699219 C 261.851562 91.898438 260.265625 90.535156 257.699219 89.601562 C 255.101562 88.699219 251.765625 88.234375 247.699219 88.199219 C 249.566406 88.699219 251.082031 89.367188 252.25 90.199219 C 253.449219 91.066406 254.234375 92.101562 254.601562 93.300781 C 255.167969 95.332031 254.566406 97.535156 252.800781 99.898438 C 251.035156 102.300781 248.351562 104.699219 244.75 107.101562 C 241.148438 109.5 236.867188 111.734375 231.898438 113.800781 C 231.132812 108.933594 230.917969 104 231.25 99 C 231.617188 94 232.785156 88.917969 234.75 83.75 C 236.714844 78.582031 239.765625 73.316406 243.898438 67.949219 C 248.035156 62.582031 253.535156 57.082031 260.398438 51.449219 C 249.601562 58.316406 241.183594 65.199219 235.148438 72.101562 C 229.117188 79 225.285156 86.101562 223.648438 93.398438 C 222.015625 100.699219 222.417969 108.367188 224.851562 116.398438 C 223.882812 116.734375 222.898438 117.035156 221.898438 117.300781 C 218.632812 118.265625 215.464844 119.050781 212.398438 119.648438 C 209.300781 120.25 206.351562 120.683594 203.550781 120.949219 C 206.617188 121.015625 210 120.800781 213.699219 120.300781 C 217.367188 119.800781 221.25 119.035156 225.351562 118 C 226.648438 122 228.417969 126.132812 230.648438 130.398438 C 230.183594 130.535156 229.699219 130.683594 229.199219 130.851562 C 225.933594 131.816406 222.75 132.601562 219.648438 133.199219 C 216.582031 133.800781 213.632812 134.214844 210.800781 134.449219 C 213.734375 134.515625 216.949219 134.316406 220.449219 133.851562 C 223.917969 133.417969 227.566406 132.734375 231.398438 131.800781 C 233.667969 135.933594 236.332031 140.183594 239.398438 144.550781 C 238.167969 139.949219 236.898438 135.332031 235.601562 130.699219 C 236 130.601562 236.398438 130.484375 236.800781 130.351562 C 241.867188 128.851562 246.515625 127.117188 250.75 125.148438 C 254.949219 123.214844 258.550781 121.199219 261.550781 119.101562 C 264.582031 116.964844 266.816406 114.882812 268.25 112.851562 C 269.683594 110.816406 270.167969 108.933594 269.699219 107.199219 "/>
  </g>
  <g id="surface4">
    <text style="fill:rgb(0,46,110)" font-family="Quattrocento Sans" font-size="50" transform="matrix(1,0,0,1,180.651172,231.2)" ><![CDATA[Fujion]]></text>
  </g>
</svg>